<svg width="159" height="181" viewBox="0 0 159 181" fill="none" xmlns="http://www.w3.org/2000/svg">
<g filter="url(#filter0_f_381_458)">
<path d="M39.6525 108.269C36.3748 108.489 33.8444 107.385 32.7175 104.161C31.5972 100.968 32.9454 98.3422 35.7317 95.8106C32.3502 94.6905 29.7006 93.0561 29.6746 89.2358C29.6531 85.9597 31.4647 83.8646 34.3409 82.5261C34.643 82.4455 34.9388 82.3749 35.2409 82.2943C36.7949 82.1397 38.5094 82.1101 39.576 83.1179C41.5294 84.955 41.7953 83.6166 42.9579 82.0305C44.5551 79.8332 44.9093 78.7566 42.2259 77.6432C41.2503 77.2322 40.7376 75.7827 40.0218 74.8071C39.9321 74.3778 39.8424 73.9485 39.7464 73.5293C39.8765 70.4563 40.9255 67.8849 43.9419 66.5342C47.2884 65.0365 49.8967 66.3127 52.4055 69.0003C53.5925 65.4017 55.4246 62.722 59.1867 62.4899C62.4041 62.3026 64.3756 64.0257 65.5278 66.8488C65.5909 67.1508 65.6444 67.4471 65.7076 67.7492C65.442 69.1294 65.6259 70.8933 64.8336 71.8014C62.7032 74.2586 64.2415 74.511 65.9444 75.7519C67.9937 77.2444 68.5599 76.7407 69.7097 74.772C70.3567 73.6508 71.8813 73.034 73.0118 72.1783C73.3298 72.0934 73.6541 71.9984 73.9721 71.9136C77.2842 71.617 79.7957 72.7511 80.9415 75.9452C82.0777 79.1335 80.7998 81.7744 78.026 84.2857C81.2363 85.5103 84.0091 87.0112 84.0355 90.8734C84.0569 94.1494 82.2645 96.2562 79.4334 97.6498C79.0677 97.7474 78.7083 97.8349 78.3522 97.9384C76.9991 97.7288 75.3086 97.9535 74.3654 97.2149C72.328 95.6184 71.8474 96.4517 70.6562 98.4232C69.5028 100.334 68.8311 101.177 71.2243 102.267C72.3185 102.764 72.8707 104.362 73.6608 105.452C73.7372 105.818 73.8136 106.183 73.8996 106.555C73.934 109.853 72.7038 112.481 69.4863 113.793C66.2911 115.091 63.7326 114.053 61.4301 111.268C60.0513 114.792 58.1567 117.615 54.2375 117.737C51.2265 117.828 49.351 116.163 48.1625 113.568C48.0662 113.107 47.9795 112.651 47.8768 112.2C47.8443 109.876 48.729 107.843 50.2407 106.08C47.4012 103.859 44.7977 102.405 42.4547 106.858C42.1725 107.395 41.2884 107.622 40.6764 107.987C40.3203 108.09 39.9864 108.18 39.6525 108.269ZM60.4569 107.374C59.3962 105.189 65.2815 103.912 61.3729 101.514C59.3801 100.292 58.4626 100.721 57.2681 102.677C54.75 106.773 60.4648 104.921 60.4569 107.374ZM39.6179 94.8069C41.6661 93.9244 43.2949 99.9524 45.7444 94.5228C47.6869 90.2021 43.3124 91.8818 42.618 90.0444C42.1282 92.0385 40.6836 93.0787 39.6179 94.8069ZM74.2129 85.6393C69.2564 83.3281 69.3592 83.4182 68.5203 84.4647C65.6222 88.1087 69.2779 88.4926 71.0856 90.4357C71.5703 88.2164 73.0105 87.0346 74.2129 85.6393ZM53.3644 72.7059C52.5171 74.6359 51.7309 76.2558 50.4023 77.8107C52.4289 77.3872 53.1461 81.9044 56.0438 78.2185C59.6225 73.6541 53.2704 75.1483 53.3644 72.7059ZM55.2405 88.7146C54.6696 89.7986 52.9893 90.8347 55.2813 91.6413C56.4417 92.0534 57.2901 93.623 58.5132 91.2822C59.3475 89.6914 59.6416 89.0505 57.9097 88.1531C56.61 87.4761 55.798 86.8032 55.2405 88.7146Z" fill="#512F00"/>
<path d="M65.1549 68.3126C65.0918 68.0105 65.0382 67.7142 64.9751 67.4121C65.0971 67.1529 65.2957 66.8985 65.3413 66.6346C65.863 63.1885 67.4343 60.5871 71.1016 60.0619C74.0845 59.6353 76.3113 60.9717 77.2853 63.7837C78.4848 67.2322 76.8399 69.8029 73.9824 71.8326C73.7638 71.9916 73.6133 72.2752 73.4335 72.4994C73.1155 72.5843 72.7912 72.6792 72.4732 72.764C69.3744 72.315 66.9455 70.8144 65.1549 68.3126Z" fill="#512F00"/>
<path d="M74.4663 107.117C74.3898 106.751 74.3134 106.385 74.2273 106.014C74.7645 102.883 76.343 100.397 78.9179 98.5015C79.2836 98.404 79.643 98.3164 79.999 98.213C80.9348 98.4334 81.889 98.5816 82.7874 98.9042C85.3291 99.8207 86.9122 101.572 86.8957 104.463C86.877 107.104 85.6132 109.128 83.2396 110.34C80.6375 111.664 78.3217 111.065 76.3459 109.242C75.6458 108.623 75.0876 107.84 74.4663 107.117Z" fill="#512F00"/>
<path d="M48.4331 111.649C48.5295 112.11 48.6163 112.566 48.719 113.017C48.5081 113.694 48.2909 114.381 48.0704 115.053C47.1454 117.935 45.3714 119.927 42.2948 120.186C39.4729 120.418 37.3964 119.118 36.3954 116.498C35.3127 113.648 36.3722 111.208 38.6206 109.156C39.1487 108.671 39.696 108.198 40.2241 107.713C40.558 107.624 40.8981 107.525 41.232 107.435C44.2504 107.822 46.6153 109.298 48.4331 111.649Z" fill="#512F00"/>
<path d="M34.679 81.743C34.3769 81.8236 34.0811 81.8941 33.779 81.9747C30.3269 81.2004 26.9281 80.3196 26.816 75.809C26.7456 73.1841 27.9932 71.1224 30.3827 69.9058C34.4669 67.8426 36.8881 70.3103 39.2057 72.9651C39.2955 73.3944 39.3852 73.8236 39.4813 74.2428C38.8291 77.3458 37.1707 79.811 34.679 81.743Z" fill="#512F00"/>
<path d="M75.9355 123.697C74.2641 126.501 70.3211 127.553 67.7094 125.9C65.2322 124.328 64.4515 120.634 66.0508 117.967C67.7284 115.152 71.6555 114.105 74.2768 115.764C76.7381 117.339 77.5189 121.033 75.9355 123.697Z" fill="#512F00"/>
<path d="M19.8838 96.4302C17.2505 94.8751 16.4613 90.9397 18.2518 88.2632C19.9572 85.7016 23.6207 84.7578 26.129 86.2371C28.7622 87.7922 29.5514 91.7275 27.761 94.4041C26.0652 96.9714 22.3921 97.9095 19.8838 96.4302Z" fill="#512F00"/>
<path d="M31.0599 107.005C29.4553 109.808 25.5414 110.919 22.9077 109.322C20.4182 107.813 19.593 104.147 21.1158 101.475C22.7204 98.6717 26.6343 97.5603 29.268 99.1573C31.7671 100.673 32.5986 104.328 31.0599 107.005Z" fill="#512F00"/>
<path d="M87.1951 93.7859C84.6493 92.0062 84.1241 88.0089 86.0971 85.4432C88.0039 82.9623 91.733 82.2527 94.1025 83.9116C96.6484 85.6914 97.1673 89.6987 95.2006 92.2544C93.3034 94.7411 89.5743 95.4507 87.1951 93.7859Z" fill="#512F00"/>
<path d="M45.6764 54.1756C48.1999 55.5669 49.1648 59.1784 47.7319 61.9189C46.252 64.756 42.3778 66.0162 39.675 64.5301C37.0012 63.0614 36.1103 59.1617 37.8364 56.4184C39.4744 53.8161 43.1242 52.7669 45.6764 54.1756Z" fill="#512F00"/>
<path d="M92.429 78.9183C90.6903 81.6817 86.737 82.6441 84.1948 80.9221C81.7617 79.2802 81.0733 75.5865 82.724 72.9641C84.4626 70.2007 88.4159 69.2383 90.9581 70.9603C93.3913 72.6022 94.0733 76.306 92.429 78.9183Z" fill="#512F00"/>
<path d="M58.7791 51.2135C61.3969 52.8147 62.1289 56.757 60.2999 59.4103C58.5498 61.9586 54.8666 62.849 52.3993 61.3251C49.7815 59.7239 49.0496 55.7816 50.8689 53.1224C52.6224 50.59 56.3119 49.6896 58.7791 51.2135Z" fill="#512F00"/>
<path d="M62.9812 126.802C61.2906 129.595 57.3568 130.611 54.7672 128.944C52.3026 127.352 51.5569 123.665 53.1692 121.019C54.8598 118.227 58.784 117.205 61.3769 118.888C63.8415 120.48 64.5838 124.151 62.9812 126.802Z" fill="#512F00"/>
<path d="M24.8454 114.128C27.038 111.486 29.5574 110.89 32.307 112.599C34.9316 114.232 35.3923 117.76 33.3202 120.336C31.1473 123.031 28.5052 123.442 25.8913 121.579C23.2261 119.671 23.149 117.015 24.8454 114.128Z" fill="#512F00"/>
<path d="M80.9238 122.504C78.3324 120.585 77.6642 118.112 79.3528 115.11C80.9631 112.256 84.4989 111.346 87.0257 113.156C89.6615 115.045 90.1751 117.703 88.3068 120.568C86.4356 123.458 83.8137 123.923 80.9238 122.504Z" fill="#512F00"/>
<path d="M24.4488 81.0882C22.4389 83.8403 19.9383 84.7677 17.0996 83.0741C14.2898 81.3981 13.6869 78.7555 15.4846 75.7914C17.2856 72.8433 19.9345 72.103 22.7632 73.7488C25.6145 75.4222 25.9844 78.0346 24.4488 81.0882Z" fill="#512F00"/>
<path d="M49.738 129.694C47.7566 132.422 45.2371 133.379 42.3928 131.779C39.5837 130.187 38.9364 127.573 40.5134 124.517C42.0182 121.597 45.5413 120.582 48.1315 122.291C50.85 124.093 51.264 126.634 49.738 129.694Z" fill="#512F00"/>
<path d="M90.6898 106.476C88.1202 104.501 87.5059 102.005 89.2426 99.0323C90.9009 96.2066 94.4564 95.3504 96.9454 97.2206C99.5435 99.1707 99.9999 101.835 98.0994 104.667C96.1642 107.532 93.5353 107.923 90.6898 106.476Z" fill="#512F00"/>
<path d="M32.8811 57.8531C35.4097 59.8723 36.0021 62.4247 34.0669 65.2907C32.1254 68.1667 29.4247 68.7362 26.7101 66.9514C23.9666 65.149 23.5609 62.4461 25.4706 59.5785C27.4055 56.6706 30.0285 56.3317 32.8811 57.8531Z" fill="#512F00"/>
<path d="M73.0892 55.8297C70.8733 58.7207 68.3306 59.567 65.5455 57.8088C62.77 56.0564 62.2496 53.3666 64.1243 50.4492C65.9989 47.5317 68.6898 46.8725 71.4745 48.5889C74.3073 50.3343 74.5086 52.9833 73.0892 55.8297Z" fill="#512F00"/>
<path d="M88.9765 65.8218C86.9248 68.5347 84.4453 69.3221 81.5947 67.7325C78.8691 66.2186 78.2143 62.7254 80.1773 60.0697C82.2094 57.3033 84.8434 56.6929 87.5519 58.4463C90.2893 60.2173 90.5605 62.8392 88.9765 65.8218Z" fill="#512F00"/>
<path d="M10.6073 111.699C8.33901 109.921 7.54771 107.581 9.0994 104.969C10.6544 102.372 13.2356 101.633 15.7143 103.053C18.2026 104.478 18.7857 107.066 17.2466 109.659C15.7141 112.283 13.2354 112.709 10.6073 111.699Z" fill="#512F00"/>
<path d="M29.6134 134.433C27.3899 132.668 26.589 130.322 28.1469 127.7C29.7082 125.093 32.3149 124.356 34.7999 125.765C37.2977 127.197 37.8842 129.801 36.3484 132.409C34.797 135.064 32.3121 135.5 29.6134 134.433Z" fill="#512F00"/>
<path d="M99.7911 110.546C101.74 112.241 102.375 114.514 100.906 117.163C99.5691 119.559 95.8575 120.432 93.8804 118.803C91.701 117.009 91.2723 114.598 92.8467 112.013C94.1788 109.794 97.551 109.104 99.7911 110.546Z" fill="#512F00"/>
<path d="M20.9808 67.9556C18.9327 70.3655 16.5555 71.2012 14.1481 69.6442C11.76 68.0989 11.2595 65.5044 12.9145 62.9812C14.5632 60.468 17.1589 59.8342 19.5693 61.3652C21.9988 62.9078 22.1351 65.4065 20.9808 67.9556Z" fill="#512F00"/>
<path d="M84.0434 45.7787C86.2636 47.5275 87.055 49.8674 85.484 52.4682C83.929 55.0648 81.3382 55.798 78.8657 54.3682C76.3837 52.9326 75.8102 50.3501 77.3493 47.7577C78.9011 45.1452 81.3702 44.713 84.0434 45.7787Z" fill="#512F00"/>
<path d="M56.6432 45.7746C54.8082 48.1192 52.4732 49.036 49.9841 47.61C47.5109 46.1798 46.9246 43.6166 48.4579 41.0335C49.9976 38.4404 52.5733 37.7112 55.0431 39.1256C57.5385 40.5415 57.8434 43.0034 56.6432 45.7746Z" fill="#512F00"/>
<path d="M65.2326 139.408C63.2379 141.711 60.8418 142.577 58.4153 141.008C56.0079 139.451 55.5008 136.825 57.1684 134.282C58.8393 131.754 61.4634 131.096 63.8866 132.649C66.3257 134.197 66.5323 136.711 65.2326 139.408Z" fill="#512F00"/>
<path d="M103.124 68.502C105.347 70.2668 106.148 72.6124 104.59 75.235C103.029 77.8417 100.422 78.5791 97.9336 77.1536C95.4357 75.7222 94.8555 73.1078 96.4009 70.5054C97.9397 67.8712 100.425 67.4347 103.124 68.502Z" fill="#512F00"/>
<path d="M12.7425 90.0994C15.0185 92.0347 15.7144 94.4 14.0441 96.9266C12.396 99.439 9.80449 100.088 7.39499 98.5579C5.00139 97.0232 4.51069 94.4354 6.1459 91.9014C7.80959 89.3429 10.2768 89.0623 12.7425 90.0994Z" fill="#512F00"/>
<path d="M100.927 90.135C98.7035 88.3703 97.9088 86.0146 99.4764 83.3978C101.038 80.7912 103.644 80.0537 106.142 81.4851C108.64 82.9165 109.211 85.525 107.675 88.1332C106.104 90.7759 103.61 91.2066 100.927 90.135Z" fill="#512F00"/>
<path d="M43.7702 48.7925C41.8878 51.1917 39.5465 52.1186 37.0637 50.6825C34.5906 49.2523 34.0106 46.6791 35.5439 44.096C37.0835 41.5028 39.6529 40.7837 42.1291 42.188C44.6437 43.6156 44.9105 46.0961 43.7702 48.7925Z" fill="#512F00"/>
<path d="M78.1543 136.35C76.1943 138.619 73.9026 139.381 71.3757 138.015C69.0796 136.79 68.4355 133.067 70.161 130.961C72.0634 128.657 74.5567 127.976 76.9167 129.587C79.2608 131.203 79.4607 133.684 78.1543 136.35Z" fill="#512F00"/>
<path d="M109.217 94.8256C111.446 96.5385 111.892 98.7105 110.211 101.148C108.502 103.61 106.201 103.963 103.931 102.379C101.799 100.891 101.477 98.7114 102.965 96.3929C104.572 93.883 106.771 93.5229 109.217 94.8256Z" fill="#512F00"/>
<path d="M84.5981 134.693C82.2503 132.936 81.6966 130.81 83.2879 128.346C84.8792 125.883 87.1211 125.326 89.4664 126.79C91.8214 128.26 92.2231 130.502 90.6765 132.979C89.0826 135.511 86.8829 135.787 84.5981 134.693Z" fill="#512F00"/>
<path d="M4.43969 85.3026C2.26116 83.5929 1.82836 81.4426 3.51576 79.0372C5.22201 76.6016 7.49452 76.2722 9.73888 77.8552C11.855 79.3465 12.1381 81.5032 10.6503 83.7798C9.0339 86.2838 6.86009 86.6036 4.43969 85.3026Z" fill="#512F00"/>
<path d="M99.8453 56.0381C102.09 57.663 102.66 59.7852 101.04 62.2734C99.4041 64.7657 97.1582 65.2223 94.8283 63.7124C92.6523 62.2957 92.2483 60.1629 93.6621 57.8137C95.2017 55.263 97.3616 54.7958 99.8453 56.0381Z" fill="#512F00"/>
<path d="M24.4999 53.5646C22.0954 51.8984 21.4497 49.8133 23.0214 47.2961C24.5965 44.7947 26.8066 44.247 29.1712 45.7225C31.369 47.0829 31.8237 49.177 30.4738 51.5512C29.0015 54.1426 26.8542 54.5896 24.4999 53.5646Z" fill="#512F00"/>
<path d="M52.0165 142.189C50.0776 144.679 47.8926 145.228 45.5967 143.641C43.2623 142.032 43.0606 139.702 44.7613 137.317C46.3644 135.068 48.5379 134.665 50.7396 136.041C53.1593 137.578 53.2709 139.798 52.0165 142.189Z" fill="#512F00"/>
<path d="M13.9337 124.233C11.5445 122.479 11.013 120.338 12.6616 117.868C14.3165 115.387 16.569 114.962 18.8862 116.492C21.0496 117.929 21.4122 120.065 19.9887 122.408C18.4241 124.999 16.2407 125.313 13.9337 124.233Z" fill="#512F00"/>
<path d="M69.0504 42.6973C67.2406 45.0015 65.0906 45.5583 62.8043 43.9776C60.4891 42.3794 60.2877 40.0913 61.9759 37.7272C63.5664 35.4983 65.7145 35.0931 67.8844 36.4782C70.2721 37.9815 70.4694 40.17 69.0504 42.6973Z" fill="#512F00"/>
<path d="M97.6426 131.127C95.7795 129.4 95.2299 127.373 96.7578 125.329C98.2384 123.34 100.439 122.87 102.377 124.35C104.112 125.666 104.452 127.732 103.146 129.675C101.718 131.793 99.6608 131.989 97.6426 131.127Z" fill="#512F00"/>
<path d="M1.82182 72.0189C-0.0355616 70.6012 -0.5908 68.6682 0.808953 66.5325C2.07964 64.5822 4.09236 64.0536 5.99196 65.1916C8.05493 66.4286 8.48406 68.5212 7.09391 70.6627C5.8199 72.597 3.90446 72.9486 1.82182 72.0189Z" fill="#512F00"/>
<path d="M96.3878 43.5231C98.1224 44.7554 98.8388 46.5362 97.7766 48.6406C96.6046 50.9421 94.5043 51.6535 92.3818 50.5331C90.2401 49.401 89.7659 47.2534 91.0887 45.0711C92.3047 43.06 94.2356 42.6623 96.3878 43.5231Z" fill="#512F00"/>
<path d="M113.172 113.529C111.678 115.497 109.715 116.306 107.632 115.099C105.56 113.898 105.123 111.731 106.434 109.569C107.647 107.583 109.708 107 111.645 107.994C113.79 109.1 114.111 111.155 113.172 113.529Z" fill="#512F00"/>
<path d="M15.8215 49.1197C17.5432 50.3303 18.2531 52.0794 17.1971 54.1737C16.0376 56.4551 13.9627 57.1681 11.8498 56.0535C9.73355 54.923 9.24381 52.8215 10.5667 50.6391C11.786 48.6439 13.6819 48.2388 15.8215 49.1197Z" fill="#512F00"/>
<path d="M22.7283 135.101C21.2373 137.043 19.2773 137.827 17.2331 136.601C15.1984 135.381 14.7688 133.246 16.102 131.111C17.3282 129.147 19.3699 128.594 21.2848 129.602C23.3982 130.717 23.7217 132.746 22.7283 135.101Z" fill="#512F00"/>
<path d="M81.6753 39.1412C80.3237 40.9875 78.4943 41.7525 76.5063 40.7553C74.3293 39.6574 73.7533 37.5449 75.0317 35.3489C76.3068 33.1369 78.463 32.5701 80.5331 33.8391C82.4142 35.0076 82.6701 36.9537 81.6753 39.1412Z" fill="#512F00"/>
<path d="M33.1486 146.484C31.3194 145 30.7065 143.032 32.0936 140.916C33.4682 138.821 35.6309 138.328 37.6243 139.634C39.4351 140.829 39.8542 142.874 38.673 144.85C37.3757 147.034 35.3553 147.405 33.1486 146.484Z" fill="#512F00"/>
<path d="M75.1524 149.765C73.3212 148.433 72.9238 146.693 74.3054 144.671C75.5579 142.835 77.2978 142.446 79.0728 143.55C81.0497 144.777 81.3331 146.614 79.9737 148.622C78.7278 150.49 77.0346 150.74 75.1524 149.765Z" fill="#512F00"/>
<path d="M115.064 66.4873C117.09 67.8685 117.608 69.5429 116.287 71.6156C115.099 73.4768 113.404 73.9624 111.592 72.9187C109.6 71.7803 109.211 70.004 110.484 67.9441C111.682 66.0469 113.35 65.795 115.064 66.4873Z" fill="#512F00"/>
<path d="M66.2285 146.627C67.9347 147.884 68.4076 149.503 67.2482 151.424C65.9882 153.506 64.1888 154.011 62.2215 152.79C60.4369 151.68 60.0716 149.974 61.2056 148.051C62.4685 145.944 64.2309 145.583 66.2285 146.627Z" fill="#512F00"/>
<path d="M118.175 79.3895C120.201 80.7707 120.722 82.4611 119.395 84.5438C118.2 86.415 116.5 86.9107 114.668 85.8554C112.666 84.7111 112.265 82.9132 113.56 80.839C114.748 78.9359 116.429 78.6638 118.175 79.3895Z" fill="#512F00"/>
<path d="M52.3295 32.295C50.9994 34.0432 49.369 34.5957 47.5681 33.4898C45.5845 32.2731 45.3135 30.4149 46.7087 28.4563C47.9841 26.6472 49.7442 26.3539 51.4819 27.5186C53.2388 28.695 53.3808 30.3778 52.3295 32.295Z" fill="#512F00"/>
<path d="M-0.770973 94.4619C0.881281 95.7414 1.30644 97.3735 0.0830762 99.2692C-1.26936 101.35 -3.1275 101.695 -4.99379 100.355C-6.71888 99.1286 -6.87452 97.3407 -5.60274 95.5161C-4.29287 93.6728 -2.60887 93.4585 -0.770973 94.4619Z" fill="#512F00"/>
<path d="M113.169 58.4572C111.968 60.0618 110.393 60.7171 108.721 59.8285C106.861 58.8392 106.453 57.0091 107.648 55.1374C108.724 53.457 110.457 53.0365 112.094 54.0014C113.744 54.9881 113.921 56.6364 113.169 58.4572Z" fill="#512F00"/>
<path d="M65.1044 29.0532C63.8424 30.5651 62.2636 31.2045 60.6519 30.2411C58.8768 29.1786 58.507 27.3299 59.7699 25.5408C60.8911 23.9574 62.6343 23.5427 64.215 24.5983C65.786 25.6481 65.918 27.2833 65.1044 29.0532Z" fill="#512F00"/>
<path d="M2.19117 107.303C3.89706 108.518 4.41133 110.134 3.24561 112.065C1.97302 114.167 0.138126 114.623 -1.79141 113.342C-3.56386 112.17 -3.80526 110.413 -2.59114 108.553C-1.35815 106.664 0.30924 106.37 2.19117 107.303Z" fill="#512F00"/>
<path d="M88.1897 146.527C86.6266 145.233 86.1279 143.57 87.4059 141.735C88.5423 140.106 90.2562 139.674 91.8581 140.673C93.6267 141.787 93.9705 143.592 92.718 145.428C91.5787 147.083 89.9395 147.311 88.1897 146.527Z" fill="#512F00"/>
<path d="M34.7009 36.6888C32.8883 35.2843 32.4251 33.6708 33.6262 31.7896C34.9468 29.717 36.7919 29.3506 38.6611 30.6645C40.3732 31.8692 40.5572 33.6326 39.311 35.4588C38.0397 37.3252 36.3517 37.4399 34.7009 36.6888Z" fill="#512F00"/>
<path d="M117.552 98.4395C116.123 97.0588 115.662 95.3776 117.033 93.6272C118.224 92.101 119.964 91.7124 121.494 92.8064C123.155 94.0079 123.435 95.8296 122.096 97.5715C120.895 99.1337 119.249 99.3294 117.552 98.4395Z" fill="#512F00"/>
<path d="M6.06367 125.122C4.74398 126.599 3.16785 127.17 1.54623 126.159C-0.0657746 125.154 -0.450326 123.435 0.596519 121.737C1.76284 119.848 3.60777 119.398 5.3266 120.593C6.86575 121.651 6.97594 123.343 6.06367 125.122Z" fill="#512F00"/>
<path d="M52.9853 149.727C54.6831 151.146 55.2103 152.784 53.9738 154.616C52.8692 156.236 51.1587 156.684 49.5602 155.701C47.7983 154.619 47.4579 152.83 48.6593 150.991C49.7572 149.338 51.4132 149.232 52.9853 149.727Z" fill="#512F00"/>
<path d="M26.3097 38.3451C24.9678 39.8363 23.3694 40.4222 21.7759 39.3449C20.2049 38.2951 19.8806 36.5433 21.001 34.8762C22.1248 33.2249 23.8648 32.7943 25.4613 33.8457C27.0419 34.9013 27.1647 36.5725 26.3097 38.3451Z" fill="#512F00"/>
<path d="M115.304 125.936C114.103 127.498 112.689 127.96 111.202 127.03C109.715 126.101 109.405 124.58 110.406 123.021C111.406 121.461 112.92 121.074 114.413 121.993C115.916 122.919 116.056 124.392 115.304 125.936Z" fill="#512F00"/>
<path d="M40.7253 156.904C39.7308 158.37 38.5748 158.863 37.2882 158.249C35.816 157.551 35.3808 156.232 36.2634 154.712C37.1396 153.203 38.4915 152.884 39.8823 153.755C41.1289 154.539 41.1427 155.769 40.7253 156.904Z" fill="#512F00"/>
<path d="M19.9915 144.651C21.3131 143.023 22.7383 142.693 24.1561 143.733C25.6028 144.791 25.6735 146.333 24.5513 147.791C23.5552 149.089 22.1677 149.359 20.8278 148.491C19.3149 147.518 19.2675 146.087 19.9915 144.651Z" fill="#512F00"/>
<path d="M8.55942 137.499C7.53778 138.795 6.29519 139.236 4.93901 138.33C3.7751 137.541 3.52837 136.281 4.31445 135.022C5.21372 133.582 6.56238 133.247 7.90562 134.131C9.09172 134.906 9.18836 136.131 8.55942 137.499Z" fill="#512F00"/>
<path d="M77.3449 25.5825C76.3954 26.7423 75.2168 27.2079 73.9897 26.4776C72.5895 25.6425 72.3287 24.2347 73.3496 22.8544C74.2192 21.6739 75.5269 21.3838 76.7167 22.2163C77.8839 23.0213 77.9868 24.2361 77.3449 25.5825Z" fill="#512F00"/>
<path d="M93.5897 35.5556C92.2907 37.2115 90.8582 37.4258 89.4433 36.3597C88.1664 35.391 88.0395 33.9812 89.0189 32.6036C90.1526 31.0002 91.6398 30.8468 93.0547 31.913C94.3538 32.8673 94.3465 34.2374 93.5897 35.5556Z" fill="#512F00"/>
<path d="M109.443 45.1826C108.212 46.6023 106.912 46.9661 105.641 45.9872C104.559 45.151 104.338 43.8503 105.217 42.6337C106.203 41.2459 107.568 40.9907 108.851 41.9494C109.974 42.783 109.944 44.0419 109.443 45.1826Z" fill="#512F00"/>
<path d="M12.7959 40.946C11.8657 42.1175 10.6809 42.5931 9.45708 41.8788C8.04436 41.0638 7.77733 39.6662 8.77565 38.2583C9.63231 37.0561 10.9336 36.7761 12.1326 37.5726C13.319 38.3892 13.4219 39.6039 12.7959 40.946Z" fill="#512F00"/>
<path d="M124.947 109.596C123.845 111.149 122.624 111.575 121.221 110.724C120 109.984 119.684 108.792 120.374 107.475C121.145 105.985 122.412 105.462 123.885 106.202C125.361 106.959 125.48 108.253 124.947 109.596Z" fill="#512F00"/>
<path d="M3.16202 57.0825C2.10382 58.5651 0.746355 58.9776 -0.753902 57.9846C-2.08742 57.1066 -2.33153 55.7784 -1.44823 54.3426C-0.445451 52.7153 0.970045 52.3797 2.47659 53.3626C3.82601 54.2364 3.98064 55.538 3.16202 57.0825Z" fill="#512F00"/>
<path d="M105.153 141.758C104.18 143.126 102.953 143.562 101.55 142.711C100.329 141.971 100.013 140.779 100.703 139.462C101.474 137.972 102.747 137.439 104.214 138.19C105.654 138.938 105.895 140.209 105.153 141.758Z" fill="#512F00"/>
</g>
<defs>
<filter id="filter0_f_381_458" x="-15.501" y="17.7402" width="144.738" height="144.768" filterUnits="userSpaceOnUse" color-interpolation-filters="sRGB">
<feFlood flood-opacity="0" result="BackgroundImageFix"/>
<feBlend mode="normal" in="SourceGraphic" in2="BackgroundImageFix" result="shape"/>
<feGaussianBlur stdDeviation="2" result="effect1_foregroundBlur_381_458"/>
</filter>
</defs>
</svg>
